<svg width="100" height="100" viewBox="0 0 100 100" fill="none" xmlns="http://www.w3.org/2000/svg">
<rect width="100" height="100" fill="white"/>
<path d="M15 75V30.3866C15 30.1378 15.0927 29.898 15.2601 29.7139L19.2479 25.3273C19.4374 25.1189 19.7061 25 19.9878 25H25.4667C25.7485 25 26.0171 25.1189 26.2067 25.3273L30.157 29.6727C30.3465 29.8811 30.6152 30 30.8969 30H73.5455C74.0977 30 74.5455 30.4477 74.5455 31V37H83.6877C84.348 37 84.8271 37.6286 84.6519 38.2653L74.7476 74.2653C74.6282 74.6993 74.2335 75 73.7834 75H15Z" fill="url(#paint0_linear_1_191)"/>
<path d="M15 75V30.3866C15 30.1378 15.0927 29.898 15.2601 29.7139L19.2479 25.3273C19.4374 25.1189 19.7061 25 19.9878 25H25.4667C25.7485 25 26.0171 25.1189 26.2067 25.3273L30.157 29.6727C30.3465 29.8811 30.6152 30 30.8969 30H73.5455C74.0977 30 74.5455 30.4477 74.5455 31V37M15 75L24.8038 37.7455C24.9194 37.3062 25.3166 37 25.7709 37H74.5455M15 75H73.7834C74.2335 75 74.6282 74.6993 74.7476 74.2653L84.6519 38.2653C84.8271 37.6286 84.348 37 83.6877 37H74.5455" stroke="#B28110"/>
<path d="M63.7698 39.4235L67.6784 33.5922C67.8276 34.0987 67.9437 34.6371 68.0642 35.1993C69.6637 42.6636 64.7053 50.0907 56.9558 51.7513C55.1199 52.1447 53.3485 52.074 51.6296 51.8101L51.3136 51.7616L51.1369 52.0281L37.938 71.9418C37.0876 73.1393 35.8048 73.9032 34.4064 74.2029C32.9935 74.5057 31.5286 74.3805 30.2628 73.5903C27.7714 72.0349 27.0453 68.6478 28.6799 66.2078C28.6801 66.2075 28.6804 66.2071 28.6806 66.2067L42.0925 46.4198L42.2804 46.1426L42.0956 45.8633C41.1266 44.3987 40.3374 42.8729 39.9705 41.1606C38.3845 33.7595 43.2459 26.395 50.8826 24.6521L50.951 24.6948L51.1489 24.6524C51.7223 24.5295 52.2742 24.4119 52.8107 24.3351L48.9319 30.1219L48.814 30.2979L48.8584 30.505L51.265 41.7357L51.3697 42.2246L51.8586 42.1199L63.4592 39.634L63.6571 39.5916L63.7698 39.4235ZM36.6849 68.2941C36.2869 66.437 34.4685 65.3211 32.5894 65.7237C30.7104 66.1264 29.5088 67.8894 29.9068 69.7465C30.3047 71.6036 32.1232 72.7195 34.0022 72.3169C35.8813 71.9142 37.0828 70.1512 36.6849 68.2941Z" fill="#0896BB" stroke="#004E62"/>
<defs>
<linearGradient id="paint0_linear_1_191" x1="54.5455" y1="34.5" x2="12.0317" y2="70.4525" gradientUnits="userSpaceOnUse">
<stop stop-color="#F3E672"/>
<stop offset="1" stop-color="#FFE115"/>
</linearGradient>
</defs>
</svg>
