<svg width="100" height="100" viewBox="0 0 100 100" fill="none" xmlns="http://www.w3.org/2000/svg">
<path d="M15 75V30.3866C15 30.1378 15.0927 29.898 15.2601 29.7139L19.2479 25.3273C19.4374 25.1189 19.7061 25 19.9878 25H25.4667C25.7485 25 26.0171 25.1189 26.2067 25.3273L30.157 29.6727C30.3465 29.8811 30.6152 30 30.8969 30H73.5455C74.0977 30 74.5455 30.4477 74.5455 31V37H83.6877C84.348 37 84.8271 37.6286 84.6519 38.2653L74.7476 74.2653C74.6282 74.6993 74.2335 75 73.7834 75H15Z" fill="url(#paint0_linear_1_21)"/>
<path d="M15 75V30.3866C15 30.1378 15.0927 29.898 15.2601 29.7139L19.2479 25.3273C19.4374 25.1189 19.7061 25 19.9878 25H25.4667C25.7485 25 26.0171 25.1189 26.2067 25.3273L30.157 29.6727C30.3465 29.8811 30.6152 30 30.8969 30H73.5455C74.0977 30 74.5455 30.4477 74.5455 31V37M15 75L24.8038 37.7455C24.9194 37.3062 25.3166 37 25.7709 37H74.5455M15 75H73.7834C74.2335 75 74.6282 74.6993 74.7476 74.2653L84.6519 38.2653C84.8271 37.6286 84.348 37 83.6877 37H74.5455" stroke="#B28110"/>
<defs>
<linearGradient id="paint0_linear_1_21" x1="54.5455" y1="34.5" x2="12.0317" y2="70.4525" gradientUnits="userSpaceOnUse">
<stop stop-color="#F3E672"/>
<stop offset="1" stop-color="#FFE115"/>
</linearGradient>
</defs>
</svg>
