<svg xmlns="http://www.w3.org/2000/svg" width="100" height="100" fill="none" viewBox="0 0 100 100"><g clip-path="url(#clip0_1_8)"><g filter="url(#filter0_d_1_8)"><path fill="#F5F5F5" d="M20.0001 10H60.0001L79.0001 29V90H19.5001L20.0001 10Z"/><path stroke="#000" d="M60.0001 10H20.0001L19.5001 90H79.0001V29M60.0001 10L79.0001 29M60.0001 10V29H79.0001"/><path fill="#F1CB00" d="M69.7273 93.4545L70.2727 78.4545L57.5909 86.5L54.3182 80.7727L67.6818 73.8182L54.3182 66.8636L57.5909 61.1364L70.2727 69.1818L69.7273 54.1818H76.2727L75.7273 69.1818L88.4091 61.1364L91.6818 66.8636L78.3182 73.8182L91.6818 80.7727L88.4091 86.5L75.7273 78.4545L76.2727 93.4545H69.7273Z"/></g></g><defs><filter id="filter0_d_1_8" width="76.685" height="87.954" x="17.997" y="8.5" color-interpolation-filters="sRGB" filterUnits="userSpaceOnUse"><feFlood flood-opacity="0" result="BackgroundImageFix"/><feColorMatrix in="SourceAlpha" result="hardAlpha" type="matrix" values="0 0 0 0 0 0 0 0 0 0 0 0 0 0 0 0 0 0 127 0"/><feOffset dx="1" dy="1"/><feGaussianBlur stdDeviation="1"/><feComposite in2="hardAlpha" operator="out"/><feColorMatrix type="matrix" values="0 0 0 0 0 0 0 0 0 0 0 0 0 0 0 0 0 0 0.25 0"/><feBlend in2="BackgroundImageFix" mode="normal" result="effect1_dropShadow_1_8"/><feBlend in="SourceGraphic" in2="effect1_dropShadow_1_8" mode="normal" result="shape"/></filter><clipPath id="clip0_1_8"><rect width="100" height="100" fill="#fff"/></clipPath></defs></svg>