<svg xmlns="http://www.w3.org/2000/svg" width="100" height="100" fill="none" viewBox="0 0 100 100"><path fill="url(#paint0_linear_1_21)" d="M7 80V25.4886C7 25.2386 7.09362 24.9977 7.26241 24.8134L12.2871 19.3248C12.4765 19.1178 12.7442 19 13.0247 19H19.9623C20.2428 19 20.5105 19.1178 20.6999 19.3248L25.6897 24.7752C25.8791 24.9822 26.1468 25.1 26.4273 25.1H79.1558C79.7081 25.1 80.1558 25.5477 80.1558 26.1V33.64H91.6853C92.3463 33.64 92.8255 34.2699 92.649 34.907L80.3589 79.267C80.2389 79.7001 79.8447 80 79.3952 80H7Z"/><path stroke="#B28110" d="M7 80V25.4886C7 25.2386 7.09362 24.9977 7.26241 24.8134L12.2871 19.3248C12.4765 19.1178 12.7442 19 13.0247 19H19.9623C20.2428 19 20.5105 19.1178 20.6999 19.3248L25.6897 24.7752C25.8791 24.9822 26.1468 25.1 26.4273 25.1H79.1558C79.7081 25.1 80.1558 25.5477 80.1558 26.1V33.64M7 80L19.0886 34.3838C19.2048 33.9453 19.6016 33.64 20.0552 33.64H80.1558M7 80H79.3952C79.8447 80 80.2389 79.7001 80.3589 79.267L92.649 34.907C92.8255 34.2699 92.3463 33.64 91.6853 33.64H80.1558"/><defs><linearGradient id="paint0_linear_1_21" x1="55.584" x2="3.659" y1="30.59" y2="74.811" gradientUnits="userSpaceOnUse"><stop stop-color="#F3E672"/><stop offset="1" stop-color="#FFE115"/></linearGradient></defs></svg>