<svg xmlns="http://www.w3.org/2000/svg" width="100" height="100" fill="none" viewBox="0 0 100 100"><path fill="#E64D36" d="M18.5897 85.8905C18.5897 86.0562 18.7241 86.1905 18.8897 86.1905H81.1103C81.2759 86.1905 81.4103 86.0562 81.4103 85.8905V75.7143H18.5897V85.8905Z"/><path fill="#fff" d="M81.4103 36.9667C81.4103 36.801 81.2759 36.6667 81.1103 36.6667H18.8897C18.7241 36.6667 18.5897 36.801 18.5897 36.9667V75.7143H81.4103V36.9667Z"/><path fill="#49494F" fill-rule="evenodd" d="M15 89.7C15 89.8657 15.1343 90 15.3 90H84.7C84.8657 90 85 89.8657 85 89.7V32.8571V17.7381C85 17.6616 84.9708 17.588 84.9183 17.5324L81.4103 13.8095L77.9093 10.0943C77.8526 10.0341 77.7737 10 77.691 10H63.4615H61.6667V28.7476C61.6667 28.9133 61.5324 29.0476 61.3667 29.0476H22.4795C22.3138 29.0476 22.1795 28.9133 22.1795 28.7476V10H15.3C15.1343 10 15 10.1343 15 10.3V89.7ZM81.4103 85.8905C81.4103 86.0562 81.2759 86.1905 81.1103 86.1905H18.8897C18.7241 86.1905 18.5897 86.0562 18.5897 85.8905V75.7143V36.9667C18.5897 36.801 18.7241 36.6667 18.8897 36.6667H81.1103C81.2759 36.6667 81.4103 36.801 81.4103 36.9667V75.7143V85.8905Z" clip-rule="evenodd"/><path fill="#CECFD1" fill-rule="evenodd" d="M22.4795 29.0476C22.3138 29.0476 22.1795 28.9133 22.1795 28.7476V10H61.6667V28.7476C61.6667 28.9133 61.5324 29.0476 61.3667 29.0476H22.4795ZM56.2821 14.1095C56.2821 13.9438 56.1477 13.8095 55.9821 13.8095H49.4026C49.2369 13.8095 49.1026 13.9438 49.1026 14.1095V24.9381C49.1026 25.1038 49.2369 25.2381 49.4026 25.2381H55.9821C56.1477 25.2381 56.2821 25.1038 56.2821 24.9381V14.1095Z" clip-rule="evenodd"/><path fill="#2F3035" d="M49.1026 14.1095C49.1026 13.9438 49.2369 13.8095 49.4026 13.8095H55.9821C56.1477 13.8095 56.2821 13.9438 56.2821 14.1095V24.9381C56.2821 25.1038 56.1477 25.2381 55.9821 25.2381H49.4026C49.2369 25.2381 49.1026 25.1038 49.1026 24.9381V14.1095Z"/><path stroke="#000" stroke-linecap="round" d="M22.1795 10H15.3C15.1343 10 15 10.1343 15 10.3V89.7C15 89.8657 15.1343 90 15.3 90H84.7C84.8657 90 85 89.8657 85 89.7V32.8571V17.7381C85 17.6616 84.9708 17.588 84.9183 17.5324L81.4103 13.8095L77.9093 10.0943C77.8526 10.0341 77.7737 10 77.691 10H63.4615H61.6667M22.1795 10V28.7476C22.1795 28.9133 22.3138 29.0476 22.4795 29.0476H61.3667C61.5324 29.0476 61.6667 28.9133 61.6667 28.7476V10M22.1795 10H61.6667M18.5897 75.7143V36.9667C18.5897 36.801 18.7241 36.6667 18.8897 36.6667H81.1103C81.2759 36.6667 81.4103 36.801 81.4103 36.9667V75.7143M18.5897 75.7143V85.8905C18.5897 86.0562 18.7241 86.1905 18.8897 86.1905H81.1103C81.2759 86.1905 81.4103 86.0562 81.4103 85.8905V75.7143M18.5897 75.7143H81.4103M49.4026 25.2381H55.9821C56.1477 25.2381 56.2821 25.1038 56.2821 24.9381V14.1095C56.2821 13.9438 56.1477 13.8095 55.9821 13.8095H49.4026C49.2369 13.8095 49.1026 13.9438 49.1026 14.1095V24.9381C49.1026 25.1038 49.2369 25.2381 49.4026 25.2381Z"/><path stroke="#BCBCBC" d="M22.1795 42.381H77.8205M22.1795 46.5H77.8205M22.1795 54.5H77.8205M22.1795 70.5H77.8205M22.1795 50.5H77.8205M22.1795 58.5H77.8205M22.1795 62.5H77.8205M22.1795 66.5H77.8205"/></svg>