<svg width="100" height="100" viewBox="0 0 100 100" fill="none" xmlns="http://www.w3.org/2000/svg">
<rect x="5.5" y="5.5" width="89" height="89" fill="white" stroke="black"/>
<line x1="5" y1="89.3571" x2="10.1426" y2="89.3571" stroke="black"/>
<line x1="10.9286" y1="95" x2="10.9286" y2="89.8581" stroke="black"/>
<line x1="16.0714" y1="95" x2="16.0714" y2="89.8581" stroke="black"/>
<line x1="21.2143" y1="95" x2="21.2143" y2="89.8581" stroke="black"/>
<line x1="26.3571" y1="95" x2="26.3571" y2="89.8581" stroke="black"/>
<line x1="13.4286" y1="93.7169" x2="13.4286" y2="6.28305" stroke="#D3D3D3" stroke-width="0.5"/>
<line x1="24.0357" y1="93.7196" x2="24.0357" y2="6.28571" stroke="#D3D3D3" stroke-width="0.5"/>
<line x1="34.3214" y1="93.7196" x2="34.3214" y2="6.28571" stroke="#D3D3D3" stroke-width="0.5"/>
<line x1="44.6071" y1="93.7196" x2="44.6071" y2="6.28571" stroke="#D3D3D3" stroke-width="0.5"/>
<line x1="54.8929" y1="93.7196" x2="54.8929" y2="6.28571" stroke="#D3D3D3" stroke-width="0.5"/>
<line x1="65.1786" y1="93.7196" x2="65.1786" y2="6.28571" stroke="#D3D3D3" stroke-width="0.5"/>
<line x1="85.75" y1="93.7196" x2="85.75" y2="6.28571" stroke="#D3D3D3" stroke-width="0.5"/>
<line x1="6.28571" y1="87.0357" x2="93.7196" y2="87.0357" stroke="#D3D3D3" stroke-width="0.5"/>
<line x1="6.28571" y1="76.75" x2="93.7196" y2="76.75" stroke="#D3D3D3" stroke-width="0.5"/>
<line x1="6.28571" y1="66.4643" x2="93.7196" y2="66.4643" stroke="#D3D3D3" stroke-width="0.5"/>
<line x1="6.28571" y1="56.1786" x2="93.7196" y2="56.1786" stroke="#D3D3D3" stroke-width="0.5"/>
<line x1="6.28571" y1="45.8929" x2="93.7196" y2="45.8929" stroke="#D3D3D3" stroke-width="0.5"/>
<line x1="6.28571" y1="35.6071" x2="93.7196" y2="35.6071" stroke="#D3D3D3" stroke-width="0.5"/>
<line x1="6.28571" y1="25.3214" x2="93.7196" y2="25.3214" stroke="#D3D3D3" stroke-width="0.5"/>
<line x1="6.28571" y1="15.0357" x2="93.7196" y2="15.0357" stroke="#D3D3D3" stroke-width="0.5"/>
<line x1="75.4643" y1="93.7196" x2="75.4643" y2="6.28571" stroke="#D3D3D3" stroke-width="0.5"/>
<line x1="31.5" y1="95" x2="31.5" y2="89.8581" stroke="black"/>
<line x1="36.6429" y1="95" x2="36.6429" y2="89.8581" stroke="black"/>
<line x1="41.7857" y1="95" x2="41.7857" y2="89.8581" stroke="black"/>
<line x1="46.9286" y1="95" x2="46.9286" y2="89.8581" stroke="black"/>
<line x1="52.0714" y1="95" x2="52.0714" y2="89.8581" stroke="black"/>
<line x1="57.2143" y1="95" x2="57.2143" y2="89.8581" stroke="black"/>
<line x1="62.3571" y1="95" x2="62.3571" y2="89.8581" stroke="black"/>
<line x1="67.5" y1="95" x2="67.5" y2="89.8581" stroke="black"/>
<line x1="72.6429" y1="95" x2="72.6429" y2="89.8581" stroke="black"/>
<line x1="77.7857" y1="95" x2="77.7857" y2="89.8581" stroke="black"/>
<line x1="82.9286" y1="95" x2="82.9286" y2="89.8581" stroke="black"/>
<line x1="88.0714" y1="95" x2="88.0714" y2="89.8581" stroke="black"/>
<line x1="5" y1="84.2143" x2="10.1426" y2="84.2143" stroke="black"/>
<line x1="5" y1="79.0714" x2="10.1426" y2="79.0714" stroke="black"/>
<line x1="5" y1="73.9286" x2="10.1426" y2="73.9286" stroke="black"/>
<line x1="5" y1="68.7857" x2="10.1426" y2="68.7857" stroke="black"/>
<line x1="5" y1="63.6429" x2="10.1426" y2="63.6429" stroke="black"/>
<line x1="5" y1="58.5" x2="10.1426" y2="58.5" stroke="black"/>
<line x1="5" y1="53.3571" x2="10.1426" y2="53.3571" stroke="black"/>
<line x1="5" y1="48.2143" x2="10.1426" y2="48.2143" stroke="black"/>
<line x1="5" y1="43.0714" x2="10.1426" y2="43.0714" stroke="black"/>
<line x1="5" y1="37.9286" x2="10.1426" y2="37.9286" stroke="black"/>
<line x1="5" y1="32.7857" x2="10.1426" y2="32.7857" stroke="black"/>
<line x1="5" y1="27.6429" x2="10.1426" y2="27.6429" stroke="black"/>
<line x1="5" y1="22.5" x2="10.1426" y2="22.5" stroke="black"/>
<line x1="5" y1="17.3571" x2="10.1426" y2="17.3571" stroke="black"/>
<line x1="5" y1="12.2143" x2="10.1426" y2="12.2143" stroke="black"/>
<ellipse cx="23.6425" cy="21.0712" rx="3.21391" ry="3.2141" fill="#028CD9"/>
<ellipse cx="30.071" cy="33.9284" rx="3.21391" ry="3.2141" fill="#028CD9"/>
<ellipse cx="42.9282" cy="40.357" rx="3.21391" ry="3.2141" fill="#028CD9"/>
<ellipse cx="42.9282" cy="40.357" rx="3.21391" ry="3.2141" fill="#028CD9"/>
<ellipse cx="53.2139" cy="57.0712" rx="3.21391" ry="3.2141" fill="#028CD9"/>
<ellipse cx="68.6425" cy="62.2141" rx="3.21391" ry="3.2141" fill="#028CD9"/>
<ellipse cx="75.071" cy="69.9284" rx="3.21391" ry="3.2141" fill="#028CD9"/>
<ellipse cx="84.0711" cy="75.0712" rx="3.21391" ry="3.2141" fill="#028CD9"/>
<ellipse cx="54.4996" cy="46.7855" rx="3.21391" ry="3.2141" fill="#028CD9"/>
</svg>
