<svg xmlns="http://www.w3.org/2000/svg" width="100" height="100" fill="none" viewBox="0 0 100 100"><rect width="89" height="89" x="5.5" y="5.5" fill="#fff" stroke="#000"/><line x1="5" x2="10.143" y1="89.357" y2="89.357" stroke="#000"/><line x1="10.929" x2="10.929" y1="95" y2="89.858" stroke="#000"/><line x1="16.071" x2="16.071" y1="95" y2="89.858" stroke="#000"/><line x1="21.214" x2="21.214" y1="95" y2="89.858" stroke="#000"/><line x1="26.357" x2="26.357" y1="95" y2="89.858" stroke="#000"/><line x1="13.429" x2="13.429" y1="93.717" y2="6.283" stroke="#D3D3D3" stroke-width=".5"/><line x1="24.036" x2="24.036" y1="93.72" y2="6.286" stroke="#D3D3D3" stroke-width=".5"/><line x1="34.321" x2="34.321" y1="93.72" y2="6.286" stroke="#D3D3D3" stroke-width=".5"/><line x1="44.607" x2="44.607" y1="93.72" y2="6.286" stroke="#D3D3D3" stroke-width=".5"/><line x1="54.893" x2="54.893" y1="93.72" y2="6.286" stroke="#D3D3D3" stroke-width=".5"/><line x1="65.179" x2="65.179" y1="93.72" y2="6.286" stroke="#D3D3D3" stroke-width=".5"/><line x1="85.75" x2="85.75" y1="93.72" y2="6.286" stroke="#D3D3D3" stroke-width=".5"/><line x1="6.286" x2="93.72" y1="87.036" y2="87.036" stroke="#D3D3D3" stroke-width=".5"/><line x1="6.286" x2="93.72" y1="76.75" y2="76.75" stroke="#D3D3D3" stroke-width=".5"/><line x1="6.286" x2="93.72" y1="66.464" y2="66.464" stroke="#D3D3D3" stroke-width=".5"/><line x1="6.286" x2="93.72" y1="56.179" y2="56.179" stroke="#D3D3D3" stroke-width=".5"/><line x1="6.286" x2="93.72" y1="45.893" y2="45.893" stroke="#D3D3D3" stroke-width=".5"/><line x1="6.286" x2="93.72" y1="35.607" y2="35.607" stroke="#D3D3D3" stroke-width=".5"/><line x1="6.286" x2="93.72" y1="25.321" y2="25.321" stroke="#D3D3D3" stroke-width=".5"/><line x1="6.286" x2="93.72" y1="15.036" y2="15.036" stroke="#D3D3D3" stroke-width=".5"/><line x1="75.464" x2="75.464" y1="93.72" y2="6.286" stroke="#D3D3D3" stroke-width=".5"/><line x1="31.5" x2="31.5" y1="95" y2="89.858" stroke="#000"/><line x1="36.643" x2="36.643" y1="95" y2="89.858" stroke="#000"/><line x1="41.786" x2="41.786" y1="95" y2="89.858" stroke="#000"/><line x1="46.929" x2="46.929" y1="95" y2="89.858" stroke="#000"/><line x1="52.071" x2="52.071" y1="95" y2="89.858" stroke="#000"/><line x1="57.214" x2="57.214" y1="95" y2="89.858" stroke="#000"/><line x1="62.357" x2="62.357" y1="95" y2="89.858" stroke="#000"/><line x1="67.5" x2="67.5" y1="95" y2="89.858" stroke="#000"/><line x1="72.643" x2="72.643" y1="95" y2="89.858" stroke="#000"/><line x1="77.786" x2="77.786" y1="95" y2="89.858" stroke="#000"/><line x1="82.929" x2="82.929" y1="95" y2="89.858" stroke="#000"/><line x1="88.071" x2="88.071" y1="95" y2="89.858" stroke="#000"/><line x1="5" x2="10.143" y1="84.214" y2="84.214" stroke="#000"/><line x1="5" x2="10.143" y1="79.071" y2="79.071" stroke="#000"/><line x1="5" x2="10.143" y1="73.929" y2="73.929" stroke="#000"/><line x1="5" x2="10.143" y1="68.786" y2="68.786" stroke="#000"/><line x1="5" x2="10.143" y1="63.643" y2="63.643" stroke="#000"/><line x1="5" x2="10.143" y1="58.5" y2="58.5" stroke="#000"/><line x1="5" x2="10.143" y1="53.357" y2="53.357" stroke="#000"/><line x1="5" x2="10.143" y1="48.214" y2="48.214" stroke="#000"/><line x1="5" x2="10.143" y1="43.071" y2="43.071" stroke="#000"/><line x1="5" x2="10.143" y1="37.929" y2="37.929" stroke="#000"/><line x1="5" x2="10.143" y1="32.786" y2="32.786" stroke="#000"/><line x1="5" x2="10.143" y1="27.643" y2="27.643" stroke="#000"/><line x1="5" x2="10.143" y1="22.5" y2="22.5" stroke="#000"/><line x1="5" x2="10.143" y1="17.357" y2="17.357" stroke="#000"/><line x1="5" x2="10.143" y1="12.214" y2="12.214" stroke="#000"/><ellipse cx="23.642" cy="21.071" fill="#028CD9" rx="3.214" ry="3.214"/><ellipse cx="30.071" cy="33.928" fill="#028CD9" rx="3.214" ry="3.214"/><ellipse cx="42.928" cy="40.357" fill="#028CD9" rx="3.214" ry="3.214"/><ellipse cx="42.928" cy="40.357" fill="#028CD9" rx="3.214" ry="3.214"/><ellipse cx="53.214" cy="57.071" fill="#028CD9" rx="3.214" ry="3.214"/><ellipse cx="68.642" cy="62.214" fill="#028CD9" rx="3.214" ry="3.214"/><ellipse cx="75.071" cy="69.928" fill="#028CD9" rx="3.214" ry="3.214"/><ellipse cx="84.071" cy="75.071" fill="#028CD9" rx="3.214" ry="3.214"/><ellipse cx="54.5" cy="46.785" fill="#028CD9" rx="3.214" ry="3.214"/></svg>