<svg width="100" height="100" viewBox="0 0 100 100" fill="none" xmlns="http://www.w3.org/2000/svg">
<path d="M8 80V27.2948C8 27.0411 8.09642 26.7969 8.26974 26.6117L13.2231 21.3168C13.4122 21.1147 13.6766 21 13.9533 21H20.8129C21.0897 21 21.3541 21.1147 21.5432 21.3168L26.4698 26.5832C26.6589 26.7853 26.9233 26.9 27.2001 26.9H79.3052C79.8575 26.9 80.3052 27.3477 80.3052 27.9V35.16H91.6776C92.341 35.16 92.8205 35.7941 92.6398 36.4324L80.5112 79.2724C80.3893 79.7029 79.9964 80 79.549 80H8Z" fill="url(#paint0_linear_6_192)"/>
<path d="M8 80V27.2948C8 27.0411 8.09642 26.7969 8.26974 26.6117L13.2231 21.3168C13.4122 21.1147 13.6766 21 13.9533 21H20.8129C21.0897 21 21.3541 21.1147 21.5432 21.3168L26.4698 26.5832C26.6589 26.7853 26.9233 26.9 27.2001 26.9H79.3052C79.8575 26.9 80.3052 27.3477 80.3052 27.9V35.16M8 80L19.9428 35.8986C20.0609 35.4627 20.4565 35.16 20.9081 35.16H80.3052M8 80H79.549C79.9964 80 80.3893 79.7029 80.5112 79.2724L92.6398 36.4324C92.8205 35.7941 92.341 35.16 91.6776 35.16H80.3052" stroke="#B28110"/>
<path d="M53.3031 21.8048C54.0726 21.6399 54.8165 21.4812 55.5408 21.3878L50.6853 28.4123L50.5624 28.5901L50.6077 28.8014L53.4475 42.0536L53.5523 42.5425L54.0412 42.4377L68.1276 39.4192L68.3214 39.3777L68.4341 39.2146L73.3466 32.1076C73.5566 32.768 73.7091 33.4752 73.8672 34.2127C75.7628 43.0591 69.6712 51.9265 60.193 53.9575C57.9447 54.4393 55.7813 54.3669 53.6899 54.066L53.3816 54.0216L53.2059 54.2787L37.0577 77.9009C36.0009 79.3459 34.4132 80.2729 32.6878 80.6426C30.948 81.0154 29.1404 80.8768 27.5826 79.935C24.5289 78.0887 23.6615 74.0423 25.6899 71.1066C25.6901 71.1063 25.6903 71.1059 25.6906 71.1056L42.0955 47.6326L42.2924 47.3509L42.1 47.0661C40.932 45.338 39.98 43.5316 39.5443 41.4984C37.6615 32.7121 43.658 23.905 53.0259 21.7959L53.1093 21.8463L53.3031 21.8048ZM35.369 73.5797C34.9076 71.4267 32.7573 70.1628 30.5438 70.6372C28.3302 71.1115 26.8866 73.1455 27.348 75.2985C27.8093 77.4515 29.9596 78.7154 32.1732 78.2411C34.3868 77.7668 35.8303 75.7327 35.369 73.5797Z" fill="#0896BB" stroke="#004E62"/>
<defs>
<linearGradient id="paint0_linear_6_192" x1="56.0195" y1="32.21" x2="5.63419" y2="76.0572" gradientUnits="userSpaceOnUse">
<stop stop-color="#F3E672"/>
<stop offset="1" stop-color="#FFE115"/>
</linearGradient>
</defs>
</svg>
