<svg width="100" height="100" viewBox="0 0 100 100" fill="none" xmlns="http://www.w3.org/2000/svg">
<rect x="5.5" y="5.5" width="89" height="89" fill="white" stroke="black"/>
<line x1="5" y1="89.3571" x2="10.1429" y2="89.3571" stroke="black"/>
<line x1="10.9286" y1="95" x2="10.9286" y2="89.8571" stroke="black"/>
<line x1="16.0714" y1="95" x2="16.0714" y2="89.8571" stroke="black"/>
<line x1="21.2143" y1="95" x2="21.2143" y2="89.8571" stroke="black"/>
<line x1="26.3571" y1="95" x2="26.3571" y2="89.8571" stroke="black"/>
<line x1="13.4286" y1="93.7169" x2="13.4286" y2="6.28305" stroke="#D3D3D3" stroke-width="0.5"/>
<line x1="24.0357" y1="93.7196" x2="24.0357" y2="6.28571" stroke="#D3D3D3" stroke-width="0.5"/>
<line x1="34.3214" y1="93.7196" x2="34.3214" y2="6.28571" stroke="#D3D3D3" stroke-width="0.5"/>
<line x1="44.6071" y1="93.7196" x2="44.6071" y2="6.28571" stroke="#D3D3D3" stroke-width="0.5"/>
<line x1="54.8929" y1="93.7196" x2="54.8929" y2="6.28571" stroke="#D3D3D3" stroke-width="0.5"/>
<line x1="65.1786" y1="93.7196" x2="65.1786" y2="6.28571" stroke="#D3D3D3" stroke-width="0.5"/>
<line x1="85.75" y1="93.7196" x2="85.75" y2="6.28571" stroke="#D3D3D3" stroke-width="0.5"/>
<line x1="6.28571" y1="87.0357" x2="93.7196" y2="87.0357" stroke="#D3D3D3" stroke-width="0.5"/>
<line x1="6.28571" y1="76.75" x2="93.7196" y2="76.75" stroke="#D3D3D3" stroke-width="0.5"/>
<line x1="6.28571" y1="66.4643" x2="93.7196" y2="66.4643" stroke="#D3D3D3" stroke-width="0.5"/>
<line x1="6.28571" y1="56.1786" x2="93.7196" y2="56.1786" stroke="#D3D3D3" stroke-width="0.5"/>
<line x1="6.28571" y1="45.8929" x2="93.7196" y2="45.8929" stroke="#D3D3D3" stroke-width="0.5"/>
<line x1="6.28571" y1="35.6071" x2="93.7196" y2="35.6071" stroke="#D3D3D3" stroke-width="0.5"/>
<line x1="6.28571" y1="25.3214" x2="93.7196" y2="25.3214" stroke="#D3D3D3" stroke-width="0.5"/>
<line x1="6.28571" y1="15.0357" x2="93.7196" y2="15.0357" stroke="#D3D3D3" stroke-width="0.5"/>
<line x1="75.4643" y1="93.7196" x2="75.4643" y2="6.28571" stroke="#D3D3D3" stroke-width="0.5"/>
<line x1="31.5" y1="95" x2="31.5" y2="89.8571" stroke="black"/>
<line x1="36.6429" y1="95" x2="36.6429" y2="89.8571" stroke="black"/>
<line x1="41.7857" y1="95" x2="41.7857" y2="89.8571" stroke="black"/>
<line x1="46.9286" y1="95" x2="46.9286" y2="89.8571" stroke="black"/>
<line x1="52.0714" y1="95" x2="52.0714" y2="89.8571" stroke="black"/>
<line x1="57.2143" y1="95" x2="57.2143" y2="89.8571" stroke="black"/>
<line x1="62.3571" y1="95" x2="62.3571" y2="89.8571" stroke="black"/>
<line x1="67.5" y1="95" x2="67.5" y2="89.8571" stroke="black"/>
<line x1="72.6429" y1="95" x2="72.6429" y2="89.8571" stroke="black"/>
<line x1="77.7857" y1="95" x2="77.7857" y2="89.8571" stroke="black"/>
<line x1="82.9286" y1="95" x2="82.9286" y2="89.8571" stroke="black"/>
<line x1="88.0714" y1="95" x2="88.0714" y2="89.8571" stroke="black"/>
<line x1="5" y1="84.2143" x2="10.1429" y2="84.2143" stroke="black"/>
<line x1="5" y1="79.0714" x2="10.1429" y2="79.0714" stroke="black"/>
<line x1="5" y1="73.9286" x2="10.1429" y2="73.9286" stroke="black"/>
<line x1="5" y1="68.7857" x2="10.1429" y2="68.7857" stroke="black"/>
<line x1="5" y1="63.6429" x2="10.1429" y2="63.6429" stroke="black"/>
<line x1="5" y1="58.5" x2="10.1429" y2="58.5" stroke="black"/>
<line x1="5" y1="53.3571" x2="10.1429" y2="53.3571" stroke="black"/>
<line x1="5" y1="48.2143" x2="10.1429" y2="48.2143" stroke="black"/>
<line x1="5" y1="43.0714" x2="10.1429" y2="43.0714" stroke="black"/>
<line x1="5" y1="37.9286" x2="10.1429" y2="37.9286" stroke="black"/>
<line x1="5" y1="32.7857" x2="10.1429" y2="32.7857" stroke="black"/>
<line x1="5" y1="27.6429" x2="10.1429" y2="27.6429" stroke="black"/>
<line x1="5" y1="22.5" x2="10.1429" y2="22.5" stroke="black"/>
<line x1="5" y1="17.3571" x2="10.1429" y2="17.3571" stroke="black"/>
<line x1="5" y1="12.2143" x2="10.1429" y2="12.2143" stroke="black"/>
<circle cx="19.7857" cy="15.9286" r="3.21429" fill="#E99A00"/>
<circle cx="23.6429" cy="27.5" r="3.21429" fill="#E99A00"/>
<circle cx="33.9286" cy="32.6429" r="3.21429" fill="#E99A00"/>
<circle cx="40.3571" cy="46.7857" r="3.21429" fill="#E99A00"/>
<circle cx="31.3571" cy="41.6429" r="3.21429" fill="#E99A00"/>
<path d="M60.2857 59.6429C60.2857 61.4181 58.8466 62.8571 57.0714 62.8571C55.2962 62.8571 53.8571 61.4181 53.8571 59.6429C53.8571 57.8677 55.2962 56.4286 57.0714 56.4286C58.8466 56.4286 60.2857 57.8677 60.2857 59.6429Z" fill="#028CD9"/>
<circle cx="73.7857" cy="67.3571" r="3.21429" fill="#028CD9"/>
<path d="M66.7143 66.0714C66.7143 67.8466 65.2752 69.2857 63.5 69.2857C61.7248 69.2857 60.2857 67.8466 60.2857 66.0714C60.2857 64.2962 61.7248 62.8571 63.5 62.8571C65.2752 62.8571 66.7143 64.2962 66.7143 66.0714Z" fill="#028CD9"/>
<circle cx="84.0714" cy="73.7857" r="3.21429" fill="#028CD9"/>
<circle cx="46.7857" cy="53.2143" r="3.21429" fill="#E99A00"/>
<line x1="16.0834" y1="13.3969" x2="55.9405" y2="66.1112" stroke="#FF0000" stroke-width="2"/>
<line x1="33.6344" y1="52.9199" x2="88.9202" y2="73.4914" stroke="#599F00" stroke-width="2"/>
</svg>
